<svg width="24" height="24" viewBox="0 0 24 24" fill="none" xmlns="http://www.w3.org/2000/svg">
<path fill-rule="evenodd" clip-rule="evenodd" d="M20.484 20.485C18.218 22.752 15.205 24 12 24C8.795 24 5.782 22.752 3.516 20.485C1.248 18.219 0 15.205 0 12C0 8.795 1.248 5.782 3.516 3.516C5.781 1.249 8.795 0 12 0C15.205 0 18.219 1.249 20.485 3.516C22.752 5.782 24 8.795 24 12C24 15.205 22.752 18.219 20.484 20.485ZM19.07 4.93C17.182 3.04 14.671 2 12 2C9.329 2 6.818 3.04 4.93 4.93C3.04 6.819 2 9.329 2 12C2 14.671 3.04 17.182 4.93 19.071C6.818 20.96 9.329 22 12 22C14.671 22 17.182 20.96 19.07 19.071C20.96 17.182 22 14.671 22 12C22 9.329 20.96 6.819 19.07 4.93ZM17 13H13V17C13 17.552 12.552 18 12 18C11.448 18 11 17.552 11 17V13H7C6.448 13 6 12.552 6 12C6 11.448 6.448 11 7 11H11V7C11 6.448 11.448 6 12 6C12.552 6 13 6.448 13 7V11H17C17.552 11 18 11.448 18 12C18 12.552 17.552 13 17 13Z" fill="#3C71E9"/>
</svg>
