<svg width="25" height="37" viewBox="0 0 25 37" fill="none" xmlns="http://www.w3.org/2000/svg">
<path fill-rule="evenodd" clip-rule="evenodd" d="M22.5064 32.1151V32.1151C21.4769 30.7622 19.8645 29.9657 18.1508 29.9657H6.77968C5.06593 29.9657 3.45235 30.7622 2.4229 32.1151C1.98842 32.6884 1.67343 33.3413 1.49723 34.0353L1 36H23.9305L23.4332 34.0353C23.2558 33.3413 22.9408 32.6884 22.5064 32.1151Z" stroke="#3C71E9" stroke-width="2" stroke-linecap="round" stroke-linejoin="round"/>
<path d="M9.44769 5.22461L11.8614 10.6555" stroke="#3C71E9" stroke-width="2" stroke-linecap="round" stroke-linejoin="round"/>
<path d="M9.26972 21.1838L7.11426 29.9649H17.8155L15.6601 21.1838" stroke="#3C71E9" stroke-width="2" stroke-linecap="round" stroke-linejoin="round"/>
<path fill-rule="evenodd" clip-rule="evenodd" d="M19.3442 20.0087C19.3442 20.0087 16.2643 21.5173 12.465 21.5173C8.66462 21.5173 5.58591 20.0087 5.58591 20.0087C5.58591 20.0087 8.66462 18.5001 12.465 18.5001C16.2643 18.5001 19.3442 20.0087 19.3442 20.0087Z" stroke="#3C71E9" stroke-width="2" stroke-linecap="round" stroke-linejoin="round"/>
<path fill-rule="evenodd" clip-rule="evenodd" d="M14.7855 4.04251C14.8398 3.84096 14.8784 3.63338 14.8784 3.41373C14.8784 2.08135 13.7983 1 12.4647 1C11.1323 1 10.051 2.08135 10.051 3.41373C10.051 3.63338 10.0896 3.84096 10.1439 4.04251C8.30826 6.31866 7.03381 10.7092 7.03381 12.9323C7.03381 16.0074 9.46565 18.4996 12.4647 18.4996C15.4638 18.4996 17.8956 16.0074 17.8956 12.9323C17.8956 10.7092 16.6212 6.31866 14.7855 4.04251Z" stroke="#3C71E9" stroke-width="2" stroke-linecap="round" stroke-linejoin="round"/>
</svg>
